PathFileType	4	(X/Y/Z)	Patient4_TMGait_0pt7_01_right_43.trc.trc
DataRate	CameraRate	NumFrames	NumMarkers	Units	OrigDataRate	OrigDataStartFrame	OrigNumFrames
84.337349397591	84.337349397591	4	33	mm	84.337349397591	36	       141
Frame#	Time	Sacral			L.Shoulder			Chest			R.Shoulder			Neck			R.ASIS			L.ASIS			R.Thigh.Superior			R.Thigh.Lateral			R.Thigh.Inferior			R.Patella			L.Thigh.Superior			L.Thigh.Lateral			L.Thigh.Inferior			L.Patella			L.Shank.Superior			L.Shank.Lateral			L.Shank.Inferior			R.Shank.Superior			R.Shank.Lateral			R.Shank.Inferior			R.Heel			R.Midfoot.Superior			R.Midfoot.Lateral			R.Toe			L.Heel			L.Midfoot.Lateral			L.Midfoot.Superior			L.Toe			L.Elbow			L.Wrist			R.Elbow			R.Wrist			
		X1	Y1	Z1	X2	Y2	Z2	X3	Y3	Z3	X4	Y4	Z4	X5	Y5	Z5	X6	Y6	Z6	X7	Y7	Z7	X8	Y8	Z8	X9	Y9	Z9	X10	Y10	Z10	X11	Y11	Z11	X12	Y12	Z12	X13	Y13	Z13	X14	Y14	Z14	X15	Y15	Z15	X16	Y16	Z16	X17	Y17	Z17	X18	Y18	Z18	X19	Y19	Z19	X20	Y20	Z20	X21	Y21	Z21	X22	Y22	Z22	X23	Y23	Z23	X24	Y24	Z24	X25	Y25	Z25	X26	Y26	Z26	X27	Y27	Z27	X28	Y28	Z28	X29	Y29	Z29	X30	Y30	Z30	X31	Y31	Z31	X32	Y32	Z32	X33	Y33	Z33	

36	49.655000000000	816.329607979410	1000.945131568803	482.703949627565	1015.270117725513	1426.865863665615	304.364212348528	1112.928922569820	1346.838965618503	464.927398427615	1033.031755770185	1427.562958990560	637.182652847699	1021.671288185617	1484.316786481944	458.124853318173	1043.804387401385	934.669702772719	601.416021982069	1026.083326805195	951.506974347174	323.500540528909	1108.544752152895	751.590452128605	577.419379927878	1038.357712297747	633.664747172973	634.126331661109	1127.908439328685	592.451886141584	559.958759904530	1141.288826937466	503.822398879076	567.973583447805	1050.974713931090	730.075038704346	347.588930511391	949.697594181213	623.349595229910	285.383827754864	1027.747673740329	531.176873088871	341.259168969203	1013.404976273915	447.998553885525	340.754084808219	944.558906147667	392.913025961833	336.706663682431	805.106735698851	348.115991755029	287.246107778282	790.826937256425	222.637934579482	349.345211555413	1121.019433812007	413.324348901126	574.101979384971	1056.390048421276	302.097012081305	630.502558121038	1115.569442501108	212.993597466513	571.579215854363	1000.727520769023	41.682049807635	534.157118472580	1170.688977651615	100.155170308120	572.645207592588	1083.706388560759	36.387326303668	608.643754756119	1290.935918361501	51.365543734920	598.598818344633	599.806055319425	149.982959153648	386.394926821802	661.569640891993	107.609558971072	308.543703636040	764.307148744320	124.705390966340	331.579432932998	850.551096322299	31.780693491499	308.146684364685	1010.228347839773	1089.968983218072	164.733656034190	1259.683253662675	1053.445339999705	202.295163155515	929.309361257854	1095.285344190882	752.520792151021	958.024102946036	834.259884519420	756.640395346157	
37	49.666857142857	816.274504378839	1002.984347997731	486.083358967483	1014.366945660529	1428.977056679038	306.796173831690	1113.385907346624	1348.407981562858	466.220627233705	1035.446716362156	1429.023014758584	639.340030118110	1022.134439803323	1485.989620255634	460.745572049761	1044.407831990481	936.432251410665	602.985008522940	1025.059946933614	953.017344210985	325.397171591933	1105.887837705742	750.660119651193	580.042316153113	1033.605266350682	634.219765055435	636.044595054467	1122.205027154523	591.712085090222	561.443872434230	1134.092083843877	503.314948005331	569.061561738069	1055.724042834725	733.603489731776	349.464136307363	959.244777604300	623.963515161109	286.318734299152	1040.520145206379	533.720671969981	341.885896713834	1027.414897901764	449.161739698126	340.541237719319	956.481490295292	394.245054094171	336.932124637861	815.106742104298	354.601526715080	288.278780280612	796.817577266270	229.503920455259	349.916493311348	1113.552115142385	413.174978059643	575.387784070940	1048.435052640362	302.112549945923	631.527589095517	1107.435909319048	212.964662214250	572.364649736263	992.454951464150	41.578276792840	534.349666670564	1162.336435436365	100.340838696627	572.981269032934	1075.397882560042	36.322293121424	608.890318074371	1282.555367636071	51.745471550758	598.862798978668	603.288505927616	166.193853207942	387.897693194683	662.317786220702	120.533449789282	309.578181389896	766.273925227173	131.508689337670	332.107320568246	846.383425226436	31.796559744474	307.893194465400	1003.199931850523	1090.909470462452	169.564645508752	1251.031603079994	1038.154637754977	203.645432761877	938.121579847630	1094.908902881263	756.319858962800	975.571197592062	834.907599298892	759.580055994211	
38	49.678714285714	816.112986841310	1004.788252579437	489.382129419026	1013.069103576337	1430.839478438805	309.053557809210	1113.651312767721	1349.753696368724	467.230442171932	1037.812164503763	1430.199115388948	641.319000893166	1022.372062975575	1487.444547436367	463.220343573502	1044.902368768128	937.996734982624	604.445192150572	1024.001601705993	954.284178785228	327.272986048621	1102.991654714189	749.668435241585	582.405508134023	1028.879038601634	634.708411561056	637.957167957100	1116.379774848364	590.927089966406	562.806917965946	1126.777815244697	502.792476766541	570.153789225381	1060.391407425507	737.276922414319	351.278163268278	968.785479344333	624.931051520287	287.007772109136	1053.140116099384	536.764507331015	342.312543629887	1041.466932865580	450.931685059871	340.185811951942	968.790731254809	396.013182652480	336.943778092499	825.749304964802	361.062482480013	289.218785281154	803.911341739564	236.381895074687	350.450498605713	1106.027765920930	412.974897496668	576.639453929962	1040.493385880984	302.061327490449	632.549661677826	1099.293975229403	212.884462764672	573.098476534227	984.135477735021	41.495007941220	534.521385896566	1153.948061628294	100.431114395479	573.259214965378	1067.049331051409	36.236005044076	609.101939542239	1274.161848619890	51.961413597354	599.054501525974	608.511222227138	181.477286115610	389.568553585233	664.871665236989	133.100385741072	310.675545063254	769.748517547944	138.550912954485	332.620206786498	844.169876673117	32.461139866581	307.377925217589	996.079483003500	1091.696584000934	174.260573400696	1241.101412273964	1022.113885092533	204.869699968237	947.343805073842	1094.336346530739	760.081106515806	993.855052591180	835.710108800670	762.414547994325	
39	49.690571428571	815.861078891697	1006.335896628402	492.562053646460	1011.436353474621	1432.411347484823	311.108925831060	1113.731897114057	1350.861943404448	467.972449574447	1040.078246088292	1431.089705067643	643.100346480869	1022.415698366111	1488.670379089841	465.496123092480	1045.275457704123	939.356901314156	605.846720580771	1022.902458571903	955.310052379605	329.149289946286	1099.978491860255	748.713806804058	584.478838180472	1024.313242939398	635.149483704079	639.846786065653	1110.614278527112	590.137551614327	564.084702741490	1119.533656421449	502.276985694062	571.276884755868	1064.888309478125	741.081296367681	353.008159634679	978.104320827495	626.295520174729	287.473960179821	1065.396612680694	540.321806140052	342.502985530494	1055.363677133579	453.336806301470	339.628993323325	981.324236586133	398.228802326565	336.702106130151	836.873087023610	367.321690540624	290.019909211892	812.121467750637	243.013862564773	350.873371714451	1098.606005132471	412.734682147057	577.854548559000	1032.689555188410	301.972078108797	633.571095117315	1091.222165069404	212.756554822885	573.778672280179	975.779607213728	41.442130124491	534.684058037776	1145.531560579002	100.414046579805	573.477053387037	1058.673626376972	36.143279333252	609.287395794483	1265.769665820125	52.017284685723	599.182054590006	615.463880686557	195.164022735634	391.300088434689	669.365607204714	144.713981674688	311.750433986592	774.893676055858	145.496423825816	333.027870835031	844.359134713323	33.822209471527	306.572935520504	988.879164738280	1092.253558568765	178.793949425716	1229.770190723871	1005.477447433501	205.972425311832	957.004041721796	1093.540000652896	763.689247730099	1012.835402776662	836.684251544902	765.036278500484	
